<svg xmlns="http://www.w3.org/2000/svg" xmlns:xlink="http://www.w3.org/1999/xlink" viewBox="0 0 430 430" width="430" height="430" preserveAspectRatio="xMidYMid meet" style="width: 100%; height: 100%; transform: translate3d(0px, 0px, 0px); content-visibility: visible;"><defs><clipPath id="__lottie_element_1933"><rect width="430" height="430" x="0" y="0"/></clipPath><clipPath id="__lottie_element_1935"><path d="M0,0 L430,0 L430,430 L0,430z"/></clipPath></defs><g clip-path="url(#__lottie_element_1933)"><g clip-path="url(#__lottie_element_1935)" transform="matrix(1,0,0,1,0,0)" opacity="1" style="display: block;"><g transform="matrix(4,0,0,4,173.22000122070312,159.00100708007812)" opacity="1" style="display: block;"><g opacity="1" transform="matrix(1,0,0,1,0,0)"><path stroke-linecap="round" stroke-linejoin="round" fill-opacity="0" class="primary" stroke="rgb(35,35,35)" stroke-opacity="1" stroke-width="1.75" d=" M-29.5939998626709,26.378000259399414 C-29.597999572753906,29.035999298095703 -29.610366821289062,37.56201171875 -29.610366821289062,37.56201171875 C-29.61844253540039,43.08100509643555 -25.143999099731445,47.5620002746582 -19.625,47.5620002746582 C-19.625,47.5620002746582 40.40599822998047,47.5620002746582 40.40599822998047,47.5620002746582 C45.92499923706055,47.5620002746582 50.411827087402344,43.08100509643555 50.419002532958984,37.562007904052734 C50.419002532958984,37.562007904052734 50.428001403808594,30.441999435424805 50.43299865722656,26.801000595092773"/></g></g><g transform="matrix(3.7826099395751953,0,0,3.7826099395751953,74.02590942382812,-61.67048645019531)" opacity="1" style="display: block;"><g opacity="1" transform="matrix(1,0,0,1,0,0)"><path stroke-linecap="round" stroke-linejoin="round" fill-opacity="0" class="secondary" stroke="rgb(0,0,0)" stroke-opacity="1" stroke-width="1.75" d=" M52.03300094604492,52.771728515625 C52.03300094604492,52.771728515625 37.314998626708984,38.052730560302734 37.314998626708984,38.052730560302734 C37.314998626708984,38.052730560302734 22.503999710083008,52.863731384277344 22.503999710083008,52.863731384277344 M37.30799865722656,38.190731048583984 C37.30799865722656,38.190731048583984 37.30799865722656,95.2239990234375 37.30799865722656,95.2239990234375"/></g></g></g></g></svg>